<svg xmlns="http://www.w3.org/2000/svg" xmlns:xlink="http://www.w3.org/1999/xlink" width="500" zoomAndPan="magnify" viewBox="0 0 375 374.999991" height="500" preserveAspectRatio="xMidYMid meet" version="1.0"><defs><clipPath id="991deef9ed"><path d="M 75 98 L 299.976562 98 L 299.976562 278.746094 L 75 278.746094 Z M 75 98 " clip-rule="nonzero"/></clipPath></defs><g clip-path="url(#991deef9ed)"><path fill="#000000" d="M 299.976562 102.316406 L 299.976562 101.136719 C 300.015625 100.847656 300.015625 100.5625 299.976562 100.277344 C 299.859375 99.980469 299.683594 99.730469 299.441406 99.527344 L 298.800781 98.558594 L 298.050781 98.558594 C 297.765625 98.316406 297.441406 98.136719 297.085938 98.023438 L 247.800781 98.023438 C 247.449219 98.023438 247.097656 98.058594 246.753906 98.125 C 246.410156 98.195312 246.074219 98.296875 245.75 98.433594 C 245.425781 98.566406 245.117188 98.730469 244.824219 98.925781 C 244.53125 99.125 244.261719 99.34375 244.011719 99.59375 C 243.761719 99.84375 243.539062 100.113281 243.34375 100.40625 C 243.148438 100.699219 242.984375 101.011719 242.851562 101.335938 C 242.714844 101.660156 242.613281 101.996094 242.542969 102.34375 C 242.476562 102.6875 242.441406 103.035156 242.441406 103.386719 C 242.441406 103.742188 242.476562 104.089844 242.542969 104.433594 C 242.613281 104.78125 242.714844 105.117188 242.851562 105.441406 C 242.984375 105.765625 243.148438 106.078125 243.34375 106.371094 C 243.539062 106.664062 243.761719 106.933594 244.011719 107.183594 C 244.261719 107.429688 244.53125 107.652344 244.824219 107.847656 C 245.117188 108.046875 245.425781 108.210938 245.75 108.34375 C 246.074219 108.480469 246.410156 108.582031 246.753906 108.652344 C 247.097656 108.71875 247.449219 108.753906 247.800781 108.753906 L 282.835938 108.753906 L 199.371094 205.328125 L 167.871094 171.527344 C 167.355469 170.953125 166.738281 170.527344 166.023438 170.246094 C 165.308594 169.960938 164.566406 169.851562 163.800781 169.917969 C 163.050781 169.953125 162.339844 170.140625 161.667969 170.476562 C 160.996094 170.8125 160.421875 171.269531 159.941406 171.847656 L 76.800781 269.601562 C 76.574219 269.875 76.378906 270.167969 76.210938 270.480469 C 76.042969 270.789062 75.90625 271.117188 75.800781 271.453125 C 75.695312 271.789062 75.625 272.136719 75.585938 272.488281 C 75.546875 272.839844 75.542969 273.191406 75.570312 273.542969 C 75.601562 273.894531 75.664062 274.242188 75.761719 274.582031 C 75.859375 274.921875 75.988281 275.25 76.148438 275.566406 C 76.308594 275.882812 76.496094 276.179688 76.714844 276.457031 C 76.933594 276.734375 77.175781 276.992188 77.441406 277.222656 C 77.707031 277.453125 77.992188 277.652344 78.296875 277.824219 C 78.605469 278 78.921875 278.140625 79.257812 278.25 C 79.589844 278.355469 79.933594 278.429688 80.28125 278.472656 C 80.628906 278.511719 80.976562 278.515625 81.328125 278.484375 C 81.675781 278.457031 82.019531 278.390625 82.355469 278.292969 C 82.695312 278.195312 83.015625 278.0625 83.328125 277.898438 C 83.636719 277.734375 83.929688 277.542969 84.199219 277.320312 C 84.472656 277.097656 84.71875 276.851562 84.941406 276.578125 L 164.226562 183.222656 L 195.726562 215.949219 C 195.984375 216.21875 196.261719 216.460938 196.566406 216.675781 C 196.871094 216.886719 197.195312 217.066406 197.535156 217.210938 C 197.875 217.359375 198.226562 217.46875 198.589844 217.542969 C 198.953125 217.621094 199.320312 217.65625 199.691406 217.65625 C 200.0625 217.65625 200.429688 217.621094 200.792969 217.542969 C 201.15625 217.46875 201.507812 217.359375 201.847656 217.210938 C 202.191406 217.066406 202.511719 216.886719 202.816406 216.675781 C 203.121094 216.460938 203.402344 216.21875 203.65625 215.949219 L 289.371094 117.125 L 289.371094 151.460938 C 289.371094 151.8125 289.40625 152.164062 289.472656 152.507812 C 289.542969 152.851562 289.644531 153.1875 289.777344 153.515625 C 289.914062 153.839844 290.078125 154.148438 290.273438 154.441406 C 290.46875 154.734375 290.691406 155.003906 290.941406 155.253906 C 291.1875 155.503906 291.457031 155.726562 291.75 155.921875 C 292.042969 156.117188 292.351562 156.28125 292.675781 156.417969 C 293.003906 156.550781 293.335938 156.65625 293.683594 156.722656 C 294.027344 156.792969 294.375 156.824219 294.726562 156.828125 C 295.078125 156.824219 295.429688 156.792969 295.773438 156.722656 C 296.117188 156.65625 296.453125 156.550781 296.777344 156.417969 C 297.101562 156.28125 297.410156 156.117188 297.703125 155.921875 C 297.996094 155.726562 298.265625 155.503906 298.515625 155.253906 C 298.765625 155.003906 298.988281 154.734375 299.183594 154.441406 C 299.378906 154.148438 299.542969 153.839844 299.675781 153.515625 C 299.8125 153.1875 299.914062 152.851562 299.980469 152.507812 C 300.050781 152.164062 300.085938 151.8125 300.085938 151.460938 L 300.085938 102.316406 Z M 299.976562 102.316406 " fill-opacity="1" fill-rule="nonzero"/></g></svg>