<svg xmlns="http://www.w3.org/2000/svg" xmlns:xlink="http://www.w3.org/1999/xlink" width="500" zoomAndPan="magnify" viewBox="0 0 375 374.999991" height="500" preserveAspectRatio="xMidYMid meet" version="1.0"><defs><clipPath id="79d44761a8"><path d="M 68.875 100 L 305.875 100 L 305.875 273 L 68.875 273 Z M 68.875 100 " clip-rule="nonzero"/></clipPath></defs><g clip-path="url(#79d44761a8)"><path fill="#000000" d="M 300.9375 203.871094 C 300.613281 203.871094 300.292969 203.902344 299.976562 203.964844 C 299.65625 204.027344 299.347656 204.121094 299.050781 204.246094 C 298.75 204.371094 298.464844 204.523438 298.195312 204.703125 C 297.925781 204.882812 297.675781 205.085938 297.449219 205.316406 C 297.21875 205.546875 297.011719 205.792969 296.832031 206.0625 C 296.652344 206.332031 296.5 206.617188 296.378906 206.917969 C 296.253906 207.21875 296.160156 207.527344 296.097656 207.84375 C 296.03125 208.160156 296 208.484375 296 208.808594 L 296 255.695312 L 204.054688 163.753906 C 203.820312 163.535156 203.566406 163.339844 203.296875 163.167969 C 203.027344 162.992188 202.742188 162.847656 202.441406 162.730469 C 202.144531 162.613281 201.835938 162.523438 201.519531 162.460938 C 201.203125 162.402344 200.886719 162.371094 200.5625 162.371094 C 200.242188 162.371094 199.925781 162.402344 199.609375 162.460938 C 199.292969 162.523438 198.984375 162.613281 198.6875 162.730469 C 198.386719 162.847656 198.101562 162.992188 197.832031 163.167969 C 197.558594 163.339844 197.308594 163.535156 197.074219 163.753906 L 167.933594 192.90625 L 77.308594 102.269531 C 77.082031 102.039062 76.832031 101.835938 76.5625 101.65625 C 76.292969 101.476562 76.007812 101.324219 75.707031 101.199219 C 75.40625 101.074219 75.097656 100.980469 74.78125 100.917969 C 74.460938 100.851562 74.140625 100.820312 73.816406 100.820312 C 73.492188 100.820312 73.171875 100.851562 72.851562 100.914062 C 72.535156 100.976562 72.226562 101.070312 71.925781 101.195312 C 71.625 101.320312 71.339844 101.472656 71.070312 101.652344 C 70.800781 101.832031 70.550781 102.035156 70.324219 102.265625 C 70.09375 102.496094 69.886719 102.746094 69.707031 103.015625 C 69.527344 103.285156 69.375 103.566406 69.25 103.867188 C 69.125 104.167969 69.03125 104.476562 68.96875 104.792969 C 68.90625 105.113281 68.875 105.433594 68.875 105.757812 C 68.875 106.082031 68.90625 106.402344 68.96875 106.722656 C 69.03125 107.039062 69.125 107.347656 69.25 107.648438 C 69.371094 107.949219 69.523438 108.234375 69.703125 108.503906 C 69.882812 108.773438 70.089844 109.023438 70.316406 109.253906 L 164.445312 203.375 C 164.679688 203.597656 164.933594 203.792969 165.203125 203.96875 C 165.472656 204.140625 165.757812 204.289062 166.058594 204.40625 C 166.355469 204.523438 166.664062 204.613281 166.980469 204.675781 C 167.296875 204.738281 167.617188 204.765625 167.9375 204.765625 C 168.257812 204.765625 168.578125 204.738281 168.894531 204.675781 C 169.210938 204.613281 169.515625 204.523438 169.816406 204.40625 C 170.113281 204.289062 170.398438 204.140625 170.671875 203.96875 C 170.941406 203.792969 171.195312 203.597656 171.429688 203.375 L 200.570312 174.234375 L 289.445312 263.113281 L 241.6875 263.113281 C 241.363281 263.113281 241.042969 263.144531 240.726562 263.207031 C 240.40625 263.269531 240.097656 263.363281 239.800781 263.488281 C 239.5 263.613281 239.214844 263.765625 238.945312 263.945312 C 238.675781 264.125 238.425781 264.328125 238.199219 264.558594 C 237.96875 264.789062 237.761719 265.039062 237.582031 265.308594 C 237.402344 265.578125 237.25 265.859375 237.128906 266.160156 C 237.003906 266.460938 236.910156 266.769531 236.847656 267.085938 C 236.78125 267.40625 236.75 267.726562 236.75 268.050781 C 236.75 268.375 236.78125 268.695312 236.847656 269.011719 C 236.910156 269.332031 237.003906 269.640625 237.128906 269.941406 C 237.25 270.238281 237.402344 270.523438 237.582031 270.792969 C 237.761719 271.0625 237.96875 271.3125 238.199219 271.542969 C 238.425781 271.769531 238.675781 271.976562 238.945312 272.15625 C 239.214844 272.335938 239.5 272.488281 239.800781 272.613281 C 240.097656 272.734375 240.40625 272.828125 240.726562 272.894531 C 241.042969 272.957031 241.363281 272.988281 241.6875 272.988281 L 300.9375 272.988281 C 301.261719 272.988281 301.582031 272.957031 301.902344 272.894531 C 302.21875 272.828125 302.527344 272.734375 302.828125 272.613281 C 303.128906 272.488281 303.414062 272.335938 303.683594 272.15625 C 303.953125 271.976562 304.199219 271.769531 304.429688 271.542969 C 304.660156 271.3125 304.863281 271.0625 305.042969 270.792969 C 305.222656 270.523438 305.375 270.238281 305.5 269.941406 C 305.625 269.640625 305.71875 269.332031 305.78125 269.011719 C 305.84375 268.695312 305.875 268.375 305.875 268.050781 L 305.875 208.796875 C 305.875 208.472656 305.84375 208.152344 305.78125 207.835938 C 305.714844 207.519531 305.621094 207.210938 305.496094 206.910156 C 305.375 206.613281 305.222656 206.328125 305.039062 206.058594 C 304.859375 205.789062 304.65625 205.539062 304.425781 205.3125 C 304.199219 205.082031 303.949219 204.878906 303.679688 204.699219 C 303.410156 204.519531 303.125 204.367188 302.824219 204.246094 C 302.527344 204.121094 302.21875 204.027344 301.902344 203.964844 C 301.582031 203.902344 301.261719 203.871094 300.9375 203.871094 Z M 300.9375 203.871094 " fill-opacity="1" fill-rule="nonzero"/></g></svg>